<svg xmlns="http://www.w3.org/2000/svg" width="350" height="415" viewBox="0 0 350 415" fill="none">
<path d="M240.41 292.086L231.101 304.645L259.142 329.218C259.142 329.218 310.601 291.301 312.19 261.572C313.201 242.636 296.723 215.607 296.723 215.607C296.723 215.607 276.04 182.375 252.132 171.16C247.225 168.858 235.329 166.938 228.118 166.146C225.908 165.903 227.229 166.769 226.47 168.235C225.678 169.766 223.264 172.034 221.595 173.73C218.12 177.259 211.272 179.931 207.594 180.478C204.791 180.895 199.373 181.542 196.767 181.19C194.161 180.838 191.328 179.655 190.57 178.953C189.813 178.25 188.687 177.371 188.102 176.017C187.518 174.662 187.548 175.05 187.548 173.801C187.548 172.552 187.612 172.737 187.734 172.142C187.855 171.547 187.855 171.19 187.927 170.883C188.244 169.523 188.102 169.708 188.102 169.708C173.989 173.993 166.839 175.579 161.698 181.814L122.404 209.536L95.5187 174.268L60.8289 197.683C60.8289 197.683 91.5438 255.211 113.804 261.571C131.735 266.695 149.9 250.762 156.287 244.371L148.698 283.098C147.482 289.784 153.306 292.315 158.495 292.078L240.41 292.086Z" fill="#5125B0"/>
<path opacity="0.201242" fill-rule="evenodd" clip-rule="evenodd" d="M156.405 244.394L161.102 225.736L148.421 251.235L156.405 244.394Z" fill="black"/>
<path opacity="0.200591" d="M243.893 287.589L265.791 256.368L239.339 216.04" stroke="black" stroke-width="5"/>
</svg>